<svg id="Capa_1" enable-background="new 0 0 512 512" height="512" viewBox="0 0 512 512" width="512" xmlns="http://www.w3.org/2000/svg"><g><g><path d="m7.5 218.349 228.564-203.268c11.368-10.11 28.504-10.11 39.873 0l228.563 203.268-248.5 165z" fill="#eaf6ff"/><path d="m275.937 15.081c-11.368-10.11-28.505-10.11-39.873 0l-8.398 7.469c6.563.363 13.03 2.87 18.271 7.531l228.563 205.284 30-17.017z" fill="#d8ecfe"/><g><circle cx="256" cy="191.999" fill="#f58a97" r="110.756"/><path d="m256 81.243c-5.088 0-10.094.351-15 1.015 54.073 7.322 95.756 53.66 95.756 109.741s-41.683 102.418-95.756 109.741c4.906.664 9.912 1.015 15 1.015 61.169 0 110.756-49.587 110.756-110.756s-49.587-110.756-110.756-110.756z" fill="#f07281"/><g><circle cx="256" cy="132.269" fill="#fef0ae" r="22.864"/><path d="m256 109.405c-4.166 0-8.068 1.12-11.432 3.066 6.832 3.954 11.432 11.336 11.432 19.798s-4.6 15.844-11.432 19.798c3.364 1.947 7.266 3.066 11.432 3.066 12.627 0 22.864-10.237 22.864-22.864s-10.237-22.864-22.864-22.864z" fill="#fddf80"/><path d="m278.477 252.116c0 12.414-10.063 22.477-22.477 22.477s-22.477-10.063-22.477-22.477z" fill="#fef0ae"/><path d="m253.669 252.116c0 7.828-4.004 14.718-10.073 18.743 3.555 2.358 7.818 3.734 12.404 3.734 12.414 0 22.477-10.063 22.477-22.477z" fill="#fddf80"/><path d="m311.643 252.116h-111.286c-3.908 0-6.184-4.415-3.916-7.598l5.866-8.233c2.268-3.183 3.487-6.994 3.487-10.903v-36.27c0-27.728 22.478-50.206 50.206-50.206 27.728 0 50.206 22.478 50.206 50.206v36.27c0 3.908 1.219 7.72 3.487 10.903l5.866 8.233c2.268 3.182-.008 7.598-3.916 7.598z" fill="#fddf80"/><path d="m315.559 244.517-5.866-8.233c-2.268-3.183-3.487-6.994-3.487-10.903v-36.27c0-27.728-22.478-50.206-50.206-50.206-5.225 0-10.263.8-15 2.281 20.401 6.379 35.206 25.422 35.206 47.925v36.27c0 3.908 1.219 7.72 3.487 10.903l5.866 8.233c2.268 3.183-.008 7.598-3.916 7.598h30c3.908.001 6.184-4.415 3.916-7.598z" fill="#f9d070"/></g></g><path d="m504.5 218.349-233.699 132.56c-9.181 5.207-20.422 5.207-29.603 0l-233.698-132.56v256.15c0 16.569 13.431 30 30 30h437c16.569 0 30-13.431 30-30z" fill="#b3dafe"/><g><path d="m474.5 235.365v239.133c0 16.569-13.431 30-30 30h30c16.569 0 30-13.431 30-30v-256.15z" fill="#8ac9fe"/></g></g><path d="m200.357 259.616h26.616c3.338 12.912 15.086 22.477 29.026 22.477s25.688-9.565 29.026-22.477h26.616c4.628 0 8.82-2.556 10.94-6.669s1.77-9.011-.916-12.781l-5.866-8.232c-1.37-1.924-2.095-4.189-2.095-6.551v-36.27c0-21.056-11.341-39.507-28.231-49.585.582-2.369.885-4.809.885-7.259 0-16.74-13.619-30.36-30.36-30.36-16.74 0-30.36 13.62-30.36 30.36 0 2.45.304 4.89.885 7.258-16.89 10.078-28.231 28.528-28.231 49.585v36.27c0 2.362-.725 4.627-2.095 6.55l-5.865 8.233c-2.686 3.769-3.038 8.667-.917 12.781 2.122 4.114 6.314 6.67 10.942 6.67zm55.643 7.476c-5.527 0-10.365-3.01-12.96-7.477h25.92c-2.595 4.468-7.433 7.477-12.96 7.477zm0-150.183c8.914 0 16.024 7.677 15.306 16.574-4.878-1.344-10.007-2.077-15.306-2.077s-10.428.733-15.306 2.076c-.722-8.935 6.35-16.573 15.306-16.573zm-47.585 123.727c3.192-4.479 4.879-9.754 4.879-15.254v-36.27c0-23.548 19.158-42.706 42.706-42.706s42.706 19.158 42.706 42.706v36.27c0 5.5 1.687 10.774 4.878 15.254l2.836 3.979h-100.84zm296.085 125.328c4.143 0 7.5-3.358 7.5-7.5v-140.115c-.063-1.681-.546-3.854-2.516-5.604l-228.563-203.268c-14.206-12.633-35.633-12.635-49.841 0l-55.72 49.553c-3.095 2.753-3.373 7.493-.621 10.588 2.753 3.095 7.493 3.374 10.588.621l55.72-49.553c8.525-7.581 21.381-7.581 29.905 0l220.737 196.307-224.587 127.392c-6.847 3.883-15.354 3.884-22.203 0l-224.589-127.392 138.737-123.382c3.095-2.753 3.373-7.493.621-10.588s-7.492-3.373-10.588-.621l-146.564 130.342c-1.252 1.205-2.498 2.948-2.516 5.604v256.15c0 20.678 16.822 37.5 37.5 37.5h437c20.678 0 37.5-16.822 37.5-37.5v-81.035c0-4.142-3.357-7.5-7.5-7.5s-7.5 3.358-7.5 7.5v81.035c0 12.407-10.094 22.5-22.5 22.5h-437c-12.407 0-22.5-10.093-22.5-22.5v-243.272l222.499 126.206c11.414 6.475 25.593 6.474 37.003 0l222.498-126.206v127.238c0 4.142 3.357 7.5 7.5 7.5zm-248.5-55.709c65.206 0 118.256-53.049 118.256-118.256s-53.05-118.256-118.256-118.256c-65.207 0-118.256 53.049-118.256 118.256s53.049 118.256 118.256 118.256zm0-221.512c56.936 0 103.256 46.32 103.256 103.256s-46.32 103.256-103.256 103.256-103.256-46.32-103.256-103.256 46.32-103.256 103.256-103.256z"/></g></svg>